<svg width="340" height="100" viewBox="0 0 340 100" xmlns="http://www.w3.org/2000/svg">
  <path d="M 60 70 
           C 60 70, 40 70, 35 55
           C 30 40, 40 30, 55 30
           C 55 30, 60 20, 75 20
           C 90 20, 95 25, 100 25
           C 105 25, 120 15, 140 15
           C 160 15, 170 20, 180 20
           C 190 20, 210 15, 230 20
           C 250 25, 260 30, 270 35
           C 280 40, 290 45, 295 55
           C 300 65, 295 75, 280 80
           C 265 85, 240 85, 220 85
           C 200 85, 180 90, 160 90
           C 140 90, 120 85, 100 80
           C 80 75, 65 75, 60 70 Z" 
        fill="white" 
        stroke="#000" 
        stroke-width="2"/>
  
  <!-- Small tail pointing up -->
  <path d="M 165 20 L 155 5 L 175 15 Z" fill="white" stroke="#000" stroke-width="2"/>
</svg>
